<svg xmlns="http://www.w3.org/2000/svg" width="243.804" height="66.839" viewBox="0 0 243.804 66.839">
  <g id="Layer_2" data-name="Layer 2" transform="translate(0.275 0.042)">
    <g id="Layer_1" data-name="Layer 1" transform="translate(0.725 1)">
      <path id="Path_7" data-name="Path 7" d="M32.17,32.269a10.431,10.431,0,0,1-8.193-3.262,12.934,12.934,0,0,1-2.958-9.065,14.11,14.11,0,0,1,2.845-9.255A9.444,9.444,0,0,1,31.449,7.2a8.231,8.231,0,0,1,6.827,3.072,12.289,12.289,0,0,1,2.465,8.079v1.783H23.332a11.379,11.379,0,0,0,2.314,7.586,8.231,8.231,0,0,0,6.524,2.617,20.445,20.445,0,0,0,3.793-.266,20.9,20.9,0,0,0,4.021-1.328v2.01a19.761,19.761,0,0,1-3.793,1.214,23.44,23.44,0,0,1-4.02.3Zm-.645-23.1a7.244,7.244,0,0,0-5.576,2.276,10.886,10.886,0,0,0-2.465,6.638H38.39a10.544,10.544,0,0,0-1.821-6.562A5.955,5.955,0,0,0,31.525,9.17Z" transform="translate(55.882 16.281)" fill="#fbf7ff"/>
      <path id="Path_8" data-name="Path 8" d="M35.916,19.068,27.5,7.31h2.655l7.093,10.2,7.131-10.2H46.8L38.495,19.068l8.913,12.4H44.829L37.243,20.7,29.657,31.471H27.23Z" transform="translate(73.301 16.623)" fill="#fbf7ff"/>
      <path id="Path_9" data-name="Path 9" d="M44.285,32.2a8.875,8.875,0,0,1-8.155-4.172h0V42.9h-2.2V7.585h1.9l.417,3.452h0a8.724,8.724,0,0,1,7.965-3.793,8.989,8.989,0,0,1,7.586,3.224A14.641,14.641,0,0,1,54.336,19.8a14.11,14.11,0,0,1-2.693,9.255A9.065,9.065,0,0,1,44.285,32.2Zm0-1.972A6.751,6.751,0,0,0,50.012,27.5a12.706,12.706,0,0,0,2.048-7.586c0-7.131-2.579-10.658-7.586-10.658a7.586,7.586,0,0,0-6.486,2.2,11.568,11.568,0,0,0-2.01,7.586v.683a13.5,13.5,0,0,0,1.9,8.117,7.586,7.586,0,0,0,6.372,2.39Z" transform="translate(92.013 16.348)" fill="#fbf7ff"/>
      <path id="Path_10" data-name="Path 10" d="M51.879,32.269a10.431,10.431,0,0,1-8.231-3.262,13.086,13.086,0,0,1-2.921-9.065,14.11,14.11,0,0,1,2.845-9.255A9.406,9.406,0,0,1,51.158,7.2a8.155,8.155,0,0,1,6.789,3.072,12.1,12.1,0,0,1,2.465,8.079v1.783H43.041a11.379,11.379,0,0,0,2.314,7.586,8.155,8.155,0,0,0,6.524,2.617,21.012,21.012,0,0,0,3.793-.266,21.544,21.544,0,0,0,3.793-1.252v2.01a20.33,20.33,0,0,1-3.793,1.214,23.782,23.782,0,0,1-3.793.228Zm-.645-23.1a7.32,7.32,0,0,0-5.614,2.276,10.886,10.886,0,0,0-2.465,6.638H58.1a10.544,10.544,0,0,0-1.821-6.562A5.955,5.955,0,0,0,51.234,9.17Z" transform="translate(110.931 16.281)" fill="#fbf7ff"/>
      <path id="Path_11" data-name="Path 11" d="M64.5,31.845V16.18a7.586,7.586,0,0,0-1.517-5.31,6.182,6.182,0,0,0-4.741-1.631,8.231,8.231,0,0,0-6.372,2.2,10.279,10.279,0,0,0-2.01,7.093V31.845h-2.2V7.684h1.859l.455,3.338h0a9.065,9.065,0,0,1,8.382-3.793c5.5,0,8.231,2.958,8.231,8.838V31.845Z" transform="translate(130.36 16.25)" fill="#fbf7ff"/>
      <path id="Path_12" data-name="Path 12" d="M71.37,25.308a5.765,5.765,0,0,1-2.617,5.083,11.91,11.91,0,0,1-7.017,1.745,16.689,16.689,0,0,1-7.586-1.479v-2.39a16.878,16.878,0,0,0,7.586,1.821,10.241,10.241,0,0,0,5.614-.986,3.783,3.783,0,0,0,.379-6.258,17.22,17.22,0,0,0-4.855-2.427,30.117,30.117,0,0,1-5.12-2.238,7.586,7.586,0,0,1-2.2-2.162,5.348,5.348,0,0,1-.759-2.883,4.855,4.855,0,0,1,2.314-4.286,10.848,10.848,0,0,1,6.334-1.593,18.965,18.965,0,0,1,7.586,1.479l-.834,2.01a17.144,17.144,0,0,0-6.6-1.479,9.065,9.065,0,0,0-4.817.872,2.958,2.958,0,0,0-1.745,2.693,3.793,3.793,0,0,0,1.328,3.034,19.268,19.268,0,0,0,5.272,2.541,23.327,23.327,0,0,1,4.741,2.124,6.372,6.372,0,0,1,2.238,2.124,5.31,5.31,0,0,1,.759,2.655Z" transform="translate(148.486 16.414)" fill="#fbf7ff"/>
      <path id="Path_13" data-name="Path 13" d="M59.26,7.31h2.276l5.12,13.579q2.314,6.258,2.958,8.42h0c.645-1.9,1.669-4.779,3.072-8.572L77.769,7.31h2.276L69.235,35.378a22.15,22.15,0,0,1-2.2,4.627,6.3,6.3,0,0,1-2.086,1.821,6.6,6.6,0,0,1-2.883.607,8.951,8.951,0,0,1-2.807-.493v-1.9a10.658,10.658,0,0,0,2.807.228,3.793,3.793,0,0,0,2.01-.531,4.969,4.969,0,0,0,1.555-1.631,22.228,22.228,0,0,0,1.631-3.565l1.176-3.186Z" transform="translate(162.758 16.623)" fill="#fbf7ff"/>
      <path id="Path_14" data-name="Path 14" d="M25.919,37.587H7.22V5.12h18.7v5.651H13.971V17.9h11v5.727h-11v8.382H25.805Z" transform="translate(17.414 10.507)" fill="#fbf7ff"/>
      <path id="Path_15" data-name="Path 15" d="M51.075,57.263A32.05,32.05,0,1,1,19.025,2" transform="translate(-0.725 1.793)" fill="none" stroke="#fbf7ff" stroke-linecap="round" stroke-miterlimit="10" stroke-width="2"/>
      <path id="Path_16" data-name="Path 16" d="M9.81,1A32.05,32.05,0,0,1,40.495,33.012,31.557,31.557,0,0,1,36.7,47.843" transform="translate(24.648 -1)" fill="none" stroke="#fbf7ff" stroke-linecap="round" stroke-miterlimit="10" stroke-width="2"/>
    </g>
  </g>
</svg>
